<svg width="632" height="145" viewBox="0 0 632 145" fill="none" xmlns="http://www.w3.org/2000/svg">
<path d="M72.1728 16L16 72.4277H72.1728H128.346L72.1728 16ZM48.6456 61.1734L72.1728 37.5479L95.7 61.1734H72.1728H48.6456Z" fill="#73C67B"/>
<path d="M99.8499 79.4652L95.6621 83.6773H95.6952L72.1681 107.303L48.6409 83.6773H48.6835L37.4877 72.4277H16L72.1728 128.855L121.342 79.4652H99.8499Z" fill="#198E26"/>
<path d="M206.283 84.2026C206.283 84.9598 206.094 85.5514 205.715 85.9868C205.337 86.4222 204.826 86.6352 204.178 86.6352H167.122V87.984C167.122 94.2169 168.518 98.8692 171.31 101.95C174.101 105.031 178.09 106.569 183.272 106.569C188.856 106.569 195.154 106.049 202.176 105.003H202.715C203.184 105.003 203.596 105.14 203.96 105.405C204.319 105.675 204.499 106.063 204.499 106.569V110.299C204.499 111.056 204.348 111.643 204.04 112.054C203.733 112.466 203.151 112.745 202.285 112.892C196.053 114.118 189.717 114.728 183.272 114.728C180.57 114.728 178.034 114.468 175.653 113.943C173.278 113.422 170.945 112.504 168.66 111.188C166.374 109.873 164.41 108.207 162.773 106.191C161.136 104.174 159.82 101.562 158.831 98.3581C157.842 95.154 157.346 91.4957 157.346 87.3924V79.6687C157.346 71.5663 159.513 64.9832 163.857 59.924C168.196 54.8647 174.22 52.3327 181.923 52.3327C189.736 52.3327 195.75 54.8363 199.966 59.8435C204.178 64.8507 206.288 71.4244 206.288 79.5646V84.2026H206.283ZM196.398 79.2333V78.6938C196.398 66.81 191.572 60.8658 181.923 60.8658C177.168 60.8658 173.515 62.4134 170.959 65.5133C168.404 68.6132 167.126 73.0051 167.126 78.6938V79.2333H196.398Z" fill="white"/>
<path d="M291.444 111.756C291.444 112.405 291.264 112.935 290.904 113.351C290.545 113.763 290.057 113.971 289.447 113.971H283.721C283.111 113.971 282.624 113.763 282.264 113.351C281.904 112.939 281.724 112.405 281.724 111.756V71.7225C281.724 69.4177 281.488 67.5199 281.024 66.0244C280.556 64.5289 279.846 63.4214 278.89 62.7021C277.934 61.9827 276.917 61.4952 275.838 61.2444C274.759 60.9936 273.387 60.8658 271.731 60.8658H269.19C265.518 60.8658 263.014 61.3533 261.68 62.3235C260.346 63.2937 259.683 65.3145 259.683 68.3765V111.756C259.683 112.405 259.503 112.935 259.144 113.351C258.784 113.763 258.297 113.971 257.686 113.971H251.961C251.35 113.971 250.863 113.763 250.503 113.351C250.144 112.939 249.964 112.405 249.964 111.756V68.3765C249.964 65.3145 249.297 63.2984 247.967 62.3235C246.632 61.3533 244.134 60.8658 240.457 60.8658H237.916C236.331 60.8658 235.001 60.9936 233.918 61.2444C232.839 61.4952 231.803 61.9827 230.814 62.7021C229.825 63.4214 229.096 64.5289 228.627 66.0244C228.159 67.5199 227.927 69.4177 227.927 71.7225V111.756C227.927 112.405 227.757 112.935 227.416 113.351C227.075 113.763 226.597 113.971 225.982 113.971H220.205C219.594 113.971 219.107 113.763 218.747 113.351C218.388 112.939 218.208 112.405 218.208 111.756V71.7225C218.208 65.8162 219.883 61.1071 223.233 57.5955C226.583 54.0838 231.481 52.328 237.926 52.328H240.467C243.926 52.328 246.77 52.6262 249.003 53.2178C251.237 53.8141 253.181 54.8505 254.838 56.3224C257.899 53.6579 262.688 52.3233 269.204 52.3233H271.745C278.19 52.3233 283.087 54.0791 286.437 57.5908C289.788 61.1024 291.463 65.8114 291.463 71.7178V111.756H291.444Z" fill="white"/>
<path d="M352.509 84.2026C352.509 84.9598 352.32 85.5514 351.942 85.9868C351.563 86.4175 351.052 86.6352 350.404 86.6352H313.348V87.984C313.348 94.2169 314.744 98.8692 317.536 101.95C320.328 105.031 324.312 106.569 329.498 106.569C335.082 106.569 341.38 106.049 348.402 105.003H348.942C349.41 105.003 349.826 105.14 350.186 105.405C350.546 105.675 350.726 106.063 350.726 106.569V110.299C350.726 111.056 350.574 111.643 350.267 112.054C349.959 112.466 349.377 112.745 348.511 112.892C342.279 114.118 335.943 114.728 329.498 114.728C326.796 114.728 324.26 114.468 321.88 113.943C319.504 113.422 317.171 112.504 314.886 111.188C312.6 109.873 310.637 108.207 308.999 106.191C307.362 104.174 306.047 101.562 305.058 98.3581C304.069 95.154 303.572 91.4957 303.572 87.3924V79.6687C303.572 71.5663 305.739 64.9832 310.083 59.924C314.422 54.8647 320.446 52.3327 328.149 52.3327C335.962 52.3327 341.976 54.8363 346.192 59.8435C350.404 64.8507 352.514 71.4244 352.514 79.5646V84.2026H352.509ZM342.624 79.2333V78.6938C342.624 66.81 337.798 60.8658 328.149 60.8658C323.394 60.8658 319.741 62.4134 317.186 65.5133C314.63 68.6132 313.353 73.0051 313.353 78.6938V79.2333H342.624Z" fill="white"/>
<path d="M391.86 59.0815C391.86 59.7678 391.723 60.2363 391.453 60.4872C391.184 60.738 390.545 60.8658 389.537 60.8658C382.765 60.8658 377.636 61.2254 374.144 61.9448V111.756C374.144 112.334 373.964 112.845 373.604 113.294C373.245 113.744 372.776 113.971 372.199 113.971H366.421C365.882 113.971 365.413 113.753 365.016 113.323C364.619 112.892 364.42 112.367 364.42 111.756V58.0025C364.42 56.8856 365.087 56.0385 366.417 55.4611C369.332 54.2022 372.592 53.3645 376.193 52.948C379.794 52.5363 384.242 52.328 389.537 52.328C390.365 52.328 390.956 52.4274 391.321 52.6262C391.68 52.8249 391.86 53.284 391.86 54.0034V59.0815Z" fill="white"/>
<path d="M447.257 109.65C447.257 110.407 447.115 110.966 446.826 111.326C446.538 111.685 445.908 111.974 444.934 112.192C438.091 113.886 431.301 114.733 424.567 114.733C416.537 114.733 410.504 112.319 406.472 107.492C402.441 102.665 400.42 95.9681 400.42 87.3972V79.6734C400.42 71.1026 402.427 64.4011 406.444 59.5785C410.457 54.7511 416.499 52.3375 424.567 52.3375C431.301 52.3375 438.091 53.1846 444.934 54.8789C445.904 55.0966 446.538 55.3664 446.826 55.6882C447.115 56.01 447.257 56.5874 447.257 57.4157V109.65ZM437.476 105.433V61.6183C433.515 60.8989 429.209 60.5392 424.567 60.5392C419.348 60.5392 415.648 62.1673 413.466 65.4281C411.29 68.6889 410.196 73.4358 410.196 79.664V87.3877C410.196 90.4119 410.438 93.0527 410.925 95.3007C411.413 97.5535 412.193 99.5507 413.272 101.297C414.351 103.043 415.837 104.359 417.73 105.244C419.622 106.129 421.899 106.569 424.563 106.569C428.854 106.569 433.156 106.191 437.476 105.433Z" fill="white"/>
<path d="M471.967 111.756C471.967 112.334 471.778 112.845 471.399 113.294C471.021 113.744 470.543 113.971 469.966 113.971H464.24C463.7 113.971 463.232 113.753 462.835 113.323C462.437 112.892 462.238 112.367 462.238 111.756V32.8814C462.238 32.3041 462.418 31.8118 462.778 31.3954C463.137 30.9836 463.625 30.7754 464.235 30.7754H469.961C470.5 30.7754 470.969 30.9742 471.366 31.3717C471.764 31.7693 471.962 32.2709 471.962 32.8862V111.756H471.967Z" fill="white"/>
<path d="M531.793 110.299C531.793 111.094 531.637 111.685 531.334 112.083C531.026 112.48 530.407 112.75 529.47 112.892C523.238 114.118 516.452 114.728 509.103 114.728C501.073 114.728 495.04 112.315 491.008 107.487C486.972 102.66 484.956 95.9633 484.956 87.3924V79.451C484.956 70.6624 486.982 63.9467 491.032 59.2993C495.083 54.6518 501.106 52.328 509.103 52.328C513.386 52.328 517.692 52.7066 522.012 53.4639V32.8814C522.012 32.3041 522.211 31.8118 522.608 31.3954C523.006 30.9836 523.507 30.7754 524.123 30.7754H529.796C530.336 30.7754 530.804 30.9742 531.202 31.3717C531.599 31.7693 531.798 32.2709 531.798 32.8862V110.299H531.793ZM522.017 105.542V61.6182C519.173 61.1166 514.867 60.861 509.108 60.861C503.884 60.861 500.188 62.4086 498.007 65.5085C495.83 68.6084 494.737 73.2512 494.737 79.4463V87.3877C494.737 93.7247 495.816 98.4527 497.979 101.572C500.141 104.686 503.846 106.243 509.108 106.243C512.241 106.247 516.542 106.011 522.017 105.542Z" fill="white"/>
<path d="M590.483 109.65C590.483 110.407 590.336 110.966 590.053 111.326C589.764 111.685 589.135 111.974 588.16 112.192C581.317 113.886 574.527 114.733 567.794 114.733C559.763 114.733 553.73 112.319 549.699 107.492C545.667 102.665 543.647 95.9681 543.647 87.3972V79.6734C543.647 71.1026 545.653 64.4011 549.67 59.5785C553.683 54.7511 559.726 52.3375 567.794 52.3375C574.527 52.3375 581.317 53.1846 588.16 54.8789C589.13 55.0966 589.764 55.3664 590.053 55.6882C590.341 56.01 590.483 56.5874 590.483 57.4157V109.65ZM580.702 105.433V61.6183C576.742 60.8989 572.436 60.5392 567.794 60.5392C562.574 60.5392 558.874 62.1673 556.692 65.4281C554.516 68.6889 553.423 73.4358 553.423 79.664V87.3877C553.423 90.4119 553.664 93.0527 554.151 95.3007C554.639 97.5535 555.42 99.5507 556.498 101.297C557.577 103.043 559.063 104.359 560.956 105.244C562.849 106.129 565.125 106.569 567.789 106.569C572.081 106.569 576.382 106.191 580.702 105.433Z" fill="#198E26"/>
<path d="M615.52 41.1447C615.52 41.7552 615.302 42.2806 614.872 42.7112C614.441 43.1419 613.916 43.3596 613.305 43.3596H607.689C607.078 43.3596 606.553 43.1419 606.122 42.7112C605.692 42.2806 605.474 41.7552 605.474 41.1447V32.3372C605.474 31.7267 605.692 31.2013 606.122 30.7707C606.553 30.34 607.078 30.1223 607.689 30.1223H613.305C613.916 30.1223 614.441 30.34 614.872 30.7707C615.302 31.2013 615.52 31.7267 615.52 32.3372V41.1447ZM615.302 111.756C615.302 112.367 615.085 112.892 614.654 113.323C614.223 113.753 613.698 113.971 613.088 113.971H607.793C607.182 113.971 606.657 113.753 606.226 113.323C605.796 112.892 605.578 112.367 605.578 111.756V55.3569C605.578 54.7464 605.796 54.2211 606.226 53.7904C606.657 53.3597 607.182 53.142 607.793 53.142H613.088C613.698 53.142 614.223 53.3597 614.654 53.7904C615.085 54.2211 615.302 54.7464 615.302 55.3569V111.756Z" fill="#198E26"/>
</svg>
